<svg xmlns="http://www.w3.org/2000/svg" viewBox="0 0 640 360" width="640" height="360">
  <rect width="640" height="360" fill="#1c1f26"/>
  <rect x="0" y="240" width="640" height="120" fill="#2a2e37"/>
  <rect x="0" y="230" width="640" height="10" fill="#e8b93c"/>
  <rect x="40" y="60" width="90" height="130" fill="#333846" stroke="#555b6b" stroke-width="2"/>
  <text x="85" y="130" fill="#8a90a0" font-size="10" text-anchor="middle" font-family="sans-serif">MISSING</text>
  <text x="85" y="145" fill="#8a90a0" font-size="10" text-anchor="middle" font-family="sans-serif">POSTER</text>
  <circle cx="180" cy="210" r="16" fill="#d68a4c"/>
  <rect x="164" y="226" width="32" height="55" fill="#c97b3c"/>
  <text x="180" y="300" fill="#cfd3dc" font-size="14" text-anchor="middle" font-family="sans-serif">MARA</text>
  <circle cx="420" cy="210" r="16" fill="#5c7a9e"/>
  <rect x="404" y="226" width="32" height="55" fill="#4c6a8e"/>
  <text x="420" y="300" fill="#cfd3dc" font-size="14" text-anchor="middle" font-family="sans-serif">DEACON</text>
  <polygon points="560,150 640,120 640,240 560,240" fill="#e8b93c" opacity="0.85"/>
  <text x="600" y="110" fill="#e8b93c" font-size="12" text-anchor="middle" font-family="sans-serif">TRAIN →</text>
  <path d="M 250 260 C 300 250, 340 250, 380 260" stroke="#ff6b6b" stroke-width="2" fill="none" stroke-dasharray="6,4"/>
  <text x="315" y="245" fill="#ff6b6b" font-size="11" text-anchor="middle" font-family="sans-serif">DOLLY PUSH →</text>
  <text x="16" y="24" fill="#f4f5f7" font-size="16" font-family="sans-serif" font-weight="bold">SC03 · SETUP 1 · MASTER</text>
  <text x="16" y="44" fill="#9aa0ad" font-size="12" font-family="sans-serif">24mm · wide · dolly push · cues: dolly@120, pyro@200</text>
</svg>
